<svg width="462" height="462" viewBox="0 0 462 462" fill="none" xmlns="http://www.w3.org/2000/svg">
<path fill-rule="evenodd" clip-rule="evenodd" d="M461.26 231.13C461.26 234.901 461.172 238.661 460.984 242.427C460.802 246.187 460.526 249.943 460.156 253.687C459.786 257.437 459.323 261.177 458.771 264.901C458.219 268.625 457.578 272.333 456.838 276.031C456.104 279.724 455.281 283.396 454.364 287.052C453.453 290.703 452.448 294.333 451.354 297.937C450.26 301.542 449.078 305.114 447.812 308.661C446.542 312.208 445.187 315.719 443.745 319.198C442.302 322.682 440.776 326.12 439.167 329.526C437.557 332.932 435.864 336.297 434.088 339.614C432.312 342.937 430.458 346.213 428.521 349.443C426.583 352.677 424.573 355.854 422.479 358.989C420.385 362.12 418.219 365.198 415.974 368.224C413.729 371.245 411.417 374.213 409.026 377.125C406.635 380.036 404.177 382.891 401.646 385.682C399.12 388.469 396.521 391.198 393.859 393.859C391.198 396.526 388.469 399.12 385.677 401.651C382.885 404.177 380.036 406.635 377.125 409.026C374.213 411.417 371.245 413.734 368.219 415.974C365.193 418.219 362.115 420.385 358.984 422.479C355.854 424.573 352.672 426.588 349.443 428.521C346.213 430.458 342.937 432.318 339.615 434.088C336.292 435.864 332.927 437.557 329.526 439.172C326.12 440.781 322.677 442.307 319.198 443.745C315.719 445.187 312.208 446.542 308.661 447.812C305.115 449.083 301.536 450.26 297.932 451.354C294.328 452.448 290.703 453.453 287.047 454.37C283.396 455.281 279.719 456.109 276.026 456.844C272.333 457.578 268.625 458.219 264.896 458.776C261.172 459.328 257.437 459.786 253.687 460.156C249.937 460.526 246.182 460.802 242.422 460.989C238.661 461.172 234.896 461.265 231.13 461.265C227.365 461.265 223.599 461.172 219.839 460.989C216.078 460.802 212.323 460.526 208.573 460.156C204.828 459.786 201.089 459.328 197.365 458.776C193.641 458.219 189.927 457.578 186.234 456.844C182.542 456.109 178.865 455.281 175.214 454.37C171.562 453.453 167.932 452.448 164.328 451.354C160.724 450.26 157.146 449.083 153.604 447.812C150.057 446.542 146.542 445.187 143.062 443.745C139.583 442.307 136.141 440.781 132.734 439.172C129.333 437.557 125.969 435.864 122.646 434.088C119.328 432.318 116.052 430.458 112.818 428.521C109.589 426.588 106.406 424.573 103.276 422.479C100.146 420.385 97.0677 418.219 94.0416 415.974C91.0156 413.734 88.0469 411.417 85.1354 409.026C82.2239 406.635 79.375 404.177 76.5833 401.651C73.7916 399.12 71.0677 396.526 68.401 393.859C65.7396 391.198 63.1458 388.469 60.6146 385.682C58.0833 382.891 55.625 380.036 53.2344 377.125C50.8489 374.213 48.5312 371.245 46.2864 368.224C44.0417 365.198 41.875 362.12 39.7812 358.989C37.6927 355.854 35.6771 352.677 33.7396 349.443C31.8021 346.213 29.9479 342.937 28.1719 339.614C26.3958 336.297 24.7031 332.932 23.0937 329.526C21.4844 326.12 19.9583 322.682 18.5156 319.198C17.0729 315.719 15.7187 312.208 14.4531 308.661C13.1823 305.114 12 301.542 10.9062 297.937C9.81771 294.333 8.8125 290.703 7.89583 287.052C6.97917 283.396 6.15625 279.724 5.42187 276.031C4.6875 272.333 4.04167 268.625 3.48958 264.901C2.9375 261.177 2.47396 257.437 2.10937 253.687C1.73958 249.943 1.46354 246.187 1.27604 242.427C1.09375 238.661 1 234.901 1 231.13C1 227.365 1.09375 223.604 1.27604 219.838C1.46354 216.078 1.73958 212.323 2.10937 208.578C2.47396 204.828 2.9375 201.088 3.48958 197.365C4.04167 193.641 4.6875 189.932 5.42187 186.234C6.15625 182.542 6.97917 178.87 7.89583 175.213C8.8125 171.562 9.81771 167.932 10.9062 164.328C12 160.724 13.1823 157.151 14.4531 153.604C15.7187 150.057 17.0729 146.547 18.5156 143.062C19.9583 139.583 21.4844 136.146 23.0937 132.74C24.7031 129.333 26.3958 125.969 28.1719 122.651C29.9479 119.328 31.8021 116.052 33.7396 112.823C35.6771 109.589 37.6927 106.411 39.7812 103.276C41.875 100.146 44.0417 97.0677 46.2864 94.0416C48.5312 91.0156 50.8489 88.0521 53.2344 85.1406C55.625 82.2291 58.0833 79.375 60.6146 76.5833C63.1458 73.7969 65.7396 71.0677 68.401 68.4062C71.0677 65.7396 73.7916 63.1458 76.5833 60.6146C79.375 58.0885 82.2239 55.6302 85.1354 53.2396C88.0469 50.8489 91.0156 48.5312 94.0416 46.2864C97.0677 44.0469 100.146 41.875 103.276 39.7864C106.406 37.6927 109.589 35.6771 112.818 33.7396C116.052 31.8073 119.328 29.9479 122.646 28.1771C125.969 26.401 129.333 24.7083 132.734 23.0937C136.141 21.4844 139.583 19.9583 143.062 18.5208C146.542 17.0781 150.057 15.724 153.604 14.4531C157.146 13.1823 160.724 12.0052 164.328 10.9115C167.932 9.81771 171.562 8.8125 175.214 7.89583C178.865 6.98437 182.542 6.15625 186.234 5.42187C189.927 4.6875 193.641 4.04687 197.365 3.48958C201.089 2.9375 204.828 2.47917 208.573 2.10938C212.323 1.73958 216.078 1.46354 219.839 1.27604C223.599 1.09375 227.365 1 231.13 1C234.896 1 238.661 1.09375 242.422 1.27604C246.182 1.46354 249.937 1.73958 253.687 2.10938C257.437 2.47917 261.172 2.9375 264.896 3.48958C268.625 4.04687 272.333 4.6875 276.026 5.42187C279.719 6.15625 283.396 6.98437 287.047 7.89583C290.703 8.8125 294.328 9.81771 297.932 10.9115C301.536 12.0052 305.115 13.1823 308.661 14.4531C312.208 15.724 315.719 17.0781 319.198 18.5208C322.677 19.9583 326.12 21.4844 329.526 23.0937C332.927 24.7083 336.292 26.401 339.615 28.1771C342.937 29.9479 346.213 31.8073 349.443 33.7396C352.672 35.6771 355.854 37.6927 358.984 39.7864C362.115 41.875 365.193 44.0469 368.219 46.2864C371.245 48.5312 374.213 50.8489 377.125 53.2396C380.036 55.6302 382.885 58.0885 385.677 60.6146C388.469 63.1458 391.198 65.7396 393.859 68.4062C396.521 71.0677 399.12 73.7969 401.646 76.5833C404.177 79.375 406.635 82.2291 409.026 85.1406C411.417 88.0521 413.729 91.0156 415.974 94.0416C418.219 97.0677 420.385 100.146 422.479 103.276C424.573 106.411 426.583 109.589 428.521 112.823C430.458 116.052 432.312 119.328 434.088 122.651C435.864 125.969 437.557 129.333 439.167 132.74C440.776 136.146 442.302 139.583 443.745 143.062C445.187 146.547 446.542 150.057 447.812 153.604C449.078 157.151 450.26 160.724 451.354 164.328C452.448 167.932 453.453 171.562 454.364 175.213C455.281 178.87 456.104 182.542 456.838 186.234C457.578 189.932 458.219 193.641 458.771 197.365C459.323 201.088 459.786 204.828 460.156 208.578C460.526 212.323 460.802 216.078 460.984 219.838C461.172 223.604 461.26 227.365 461.26 231.13ZM122.24 239.99C122.24 136.37 158.537 84.5576 231.131 84.5576C303.719 84.5576 340.016 136.37 340.016 239.99H122.24ZM291.167 271.156H171.1C169.459 271.156 167.824 271.234 166.193 271.396C164.563 271.557 162.943 271.797 161.339 272.115C159.73 272.438 158.141 272.833 156.574 273.312C155.006 273.786 153.464 274.339 151.954 274.964C150.438 275.589 148.959 276.292 147.516 277.062C146.068 277.833 144.667 278.677 143.303 279.589C141.938 280.495 140.626 281.474 139.36 282.51C138.094 283.552 136.881 284.651 135.719 285.807C134.563 286.969 133.464 288.182 132.423 289.448C131.386 290.714 130.412 292.026 129.501 293.391C128.589 294.75 127.751 296.156 126.975 297.599C126.204 299.047 125.506 300.526 124.876 302.042C124.251 303.552 123.699 305.094 123.225 306.661C122.745 308.229 122.35 309.818 122.032 311.422C121.709 313.031 121.469 314.651 121.308 316.281C121.146 317.911 121.068 319.547 121.068 321.182C121.068 322.823 121.146 324.458 121.308 326.089C121.469 327.719 121.709 329.339 122.032 330.943C122.35 332.552 122.745 334.141 123.225 335.708C123.699 337.276 124.251 338.818 124.876 340.328C125.506 341.844 126.204 343.323 126.975 344.766C127.751 346.214 128.589 347.615 129.501 348.979C130.412 350.344 131.386 351.656 132.423 352.922C133.464 354.188 134.563 355.401 135.719 356.562C136.881 357.719 138.094 358.818 139.36 359.859C140.626 360.896 141.938 361.87 143.303 362.781C144.667 363.693 146.068 364.531 147.516 365.307C148.959 366.078 150.438 366.776 151.954 367.406C153.464 368.031 155.006 368.583 156.574 369.057C158.141 369.536 159.73 369.932 161.339 370.25C162.943 370.573 164.563 370.812 166.193 370.974C167.824 371.13 169.459 371.214 171.1 371.214H291.167C292.803 371.214 294.438 371.13 296.068 370.974C297.699 370.812 299.318 370.573 300.928 370.25C302.532 369.932 304.12 369.536 305.688 369.057C307.256 368.583 308.798 368.031 310.313 367.406C311.824 366.776 313.303 366.078 314.751 365.307C316.193 364.531 317.6 363.693 318.959 362.781C320.324 361.87 321.636 360.896 322.902 359.859C324.173 358.818 325.381 357.719 326.542 356.562C327.699 355.401 328.798 354.188 329.839 352.922C330.876 351.656 331.855 350.344 332.761 348.979C333.673 347.615 334.516 346.214 335.287 344.766C336.058 343.323 336.761 341.844 337.386 340.328C338.011 338.818 338.563 337.276 339.042 335.708C339.516 334.141 339.912 332.552 340.235 330.943C340.553 329.339 340.792 327.719 340.954 326.089C341.115 324.458 341.193 322.823 341.193 321.182C341.193 319.547 341.115 317.911 340.954 316.281C340.792 314.651 340.553 313.031 340.235 311.422C339.912 309.818 339.516 308.229 339.042 306.661C338.563 305.094 338.011 303.552 337.386 302.042C336.761 300.526 336.058 299.047 335.287 297.599C334.516 296.156 333.673 294.75 332.761 293.391C331.855 292.026 330.876 290.714 329.839 289.448C328.798 288.182 327.699 286.969 326.542 285.807C325.381 284.651 324.173 283.552 322.902 282.51C321.636 281.474 320.324 280.495 318.959 279.589C317.6 278.677 316.193 277.833 314.751 277.062C313.303 276.292 311.824 275.589 310.313 274.964C308.798 274.339 307.256 273.786 305.688 273.312C304.12 272.833 302.532 272.438 300.928 272.115C299.318 271.797 297.699 271.557 296.068 271.396C294.438 271.234 292.803 271.156 291.167 271.156Z" fill="white"/>
<path d="M460.984 242.427L460.485 242.402L460.485 242.403L460.984 242.427ZM460.156 253.687L459.658 253.638L459.658 253.638L460.156 253.687ZM458.771 264.901L458.276 264.828L458.276 264.828L458.771 264.901ZM456.838 276.031L456.348 275.933L456.348 275.934L456.838 276.031ZM454.364 287.052L453.879 286.93L453.879 286.931L454.364 287.052ZM447.812 308.661L448.283 308.83L448.284 308.829L447.812 308.661ZM443.745 319.198L443.283 319.006L443.282 319.006L443.745 319.198ZM434.088 339.614L433.647 339.378L433.647 339.379L434.088 339.614ZM428.521 349.443L428.092 349.185L428.092 349.186L428.521 349.443ZM422.479 358.989L422.895 359.268L422.895 359.267L422.479 358.989ZM415.974 368.224L416.375 368.522L416.376 368.522L415.974 368.224ZM409.026 377.125L409.413 377.442L409.413 377.442L409.026 377.125ZM401.646 385.682L401.275 385.346L401.275 385.346L401.646 385.682ZM393.859 393.859L393.506 393.505L393.505 393.506L393.859 393.859ZM385.677 401.651L386.013 402.022L386.013 402.022L385.677 401.651ZM368.219 415.974L367.921 415.572L367.921 415.572L368.219 415.974ZM358.984 422.479L358.706 422.063L358.706 422.063L358.984 422.479ZM349.443 428.521L349.186 428.091L349.185 428.092L349.443 428.521ZM339.615 434.088L339.379 433.647L339.379 433.647L339.615 434.088ZM329.526 439.172L329.74 439.624L329.74 439.624L329.526 439.172ZM319.198 443.745L319.007 443.282L319.006 443.282L319.198 443.745ZM308.661 447.812L308.83 448.283L308.83 448.283L308.661 447.812ZM287.047 454.37L287.168 454.855L287.168 454.855L287.047 454.37ZM276.026 456.844L276.124 457.334L276.124 457.334L276.026 456.844ZM264.896 458.776L264.969 459.271L264.97 459.271L264.896 458.776ZM253.687 460.156L253.638 459.658L253.638 459.658L253.687 460.156ZM242.422 460.989L242.446 461.489L242.447 461.489L242.422 460.989ZM219.839 460.989L219.814 461.489L219.814 461.489L219.839 460.989ZM208.573 460.156L208.524 460.654L208.524 460.654L208.573 460.156ZM197.365 458.776L197.291 459.271L197.291 459.271L197.365 458.776ZM175.214 454.37L175.092 454.855L175.092 454.855L175.214 454.37ZM153.604 447.812L153.773 447.341L153.773 447.341L153.604 447.812ZM143.062 443.745L143.254 443.282L143.254 443.282L143.062 443.745ZM132.734 439.172L132.52 439.624L132.521 439.624L132.734 439.172ZM122.646 434.088L122.882 433.647L122.881 433.647L122.646 434.088ZM112.818 428.521L113.075 428.092L113.075 428.091L112.818 428.521ZM103.276 422.479L102.998 422.895L102.998 422.895L103.276 422.479ZM94.0416 415.974L94.3397 415.572L94.3393 415.572L94.0416 415.974ZM85.1354 409.026L85.4529 408.639L85.4529 408.639L85.1354 409.026ZM76.5833 401.651L76.2473 402.022L76.2476 402.022L76.5833 401.651ZM68.401 393.859L68.0473 394.213L68.0473 394.213L68.401 393.859ZM60.6146 385.682L60.244 386.018L60.2443 386.019L60.6146 385.682ZM53.2344 377.125L52.8474 377.442L52.8477 377.442L53.2344 377.125ZM46.2864 368.224L45.8846 368.522L45.8849 368.522L46.2864 368.224ZM39.7812 358.989L39.3649 359.267L39.3654 359.268L39.7812 358.989ZM33.7396 349.443L34.1687 349.186L34.1686 349.185L33.7396 349.443ZM28.1719 339.614L28.6131 339.379L28.6129 339.378L28.1719 339.614ZM23.0937 329.526L22.6414 329.74L22.6414 329.74L23.0937 329.526ZM18.5156 319.198L18.9779 319.006L18.9778 319.006L18.5156 319.198ZM14.4531 308.661L14.9243 308.493L14.9241 308.493L14.4531 308.661ZM10.9062 297.937L10.4273 298.082L10.4275 298.083L10.9062 297.937ZM7.89583 287.052L7.41056 287.174L7.4106 287.174L7.89583 287.052ZM5.42187 276.031L4.93117 276.129L4.9312 276.129L5.42187 276.031ZM3.48958 264.901L2.9947 264.974L2.9947 264.974L3.48958 264.901ZM2.10937 253.687L2.60731 253.639L2.60724 253.638L2.10937 253.687ZM1.27604 242.427L0.776339 242.451L0.776375 242.452L1.27604 242.427ZM1.27604 219.838L0.776374 219.814L0.776339 219.814L1.27604 219.838ZM2.10937 208.578L2.60724 208.627L2.60731 208.626L2.10937 208.578ZM3.48958 197.365L2.9947 197.291L2.9947 197.291L3.48958 197.365ZM5.42187 186.234L4.9312 186.137L4.93117 186.137L5.42187 186.234ZM7.89583 175.213L7.4106 175.092L7.41056 175.092L7.89583 175.213ZM10.9062 164.328L10.4275 164.183L10.4273 164.183L10.9062 164.328ZM14.4531 153.604L14.9241 153.773L14.9243 153.772L14.4531 153.604ZM18.5156 143.062L18.0535 142.871L18.0534 142.871L18.5156 143.062ZM23.0937 132.74L22.6414 132.526L22.6414 132.526L23.0937 132.74ZM28.1719 122.651L28.6129 122.887L28.6131 122.887L28.1719 122.651ZM33.7396 112.823L34.1686 113.08L34.1687 113.08L33.7396 112.823ZM39.7812 103.276L39.3654 102.998L39.3649 102.999L39.7812 103.276ZM46.2864 94.0416L45.8846 93.7436L45.8846 93.7436L46.2864 94.0416ZM53.2344 85.1406L52.8477 84.8231L52.8474 84.8235L53.2344 85.1406ZM60.6146 76.5833L60.2443 76.2469L60.244 76.2473L60.6146 76.5833ZM76.5833 60.6146L76.2476 60.2436L76.2473 60.2439L76.5833 60.6146ZM85.1354 53.2396L85.4529 53.6262L85.4529 53.6262L85.1354 53.2396ZM94.0416 46.2864L93.744 45.8843L93.7436 45.8846L94.0416 46.2864ZM103.276 39.7864L103.554 40.2026L103.554 40.2023L103.276 39.7864ZM112.818 33.7396L112.561 33.3101L112.56 33.3106L112.818 33.7396ZM122.646 28.1771L122.881 28.6184L122.882 28.6183L122.646 28.1771ZM132.734 23.0937L132.521 22.6414L132.52 22.6418L132.734 23.0937ZM143.062 18.5208L143.254 18.9832L143.254 18.983L143.062 18.5208ZM153.604 14.4531L153.773 14.9241L153.773 14.924L153.604 14.4531ZM164.328 10.9115L164.473 11.3902L164.473 11.3902L164.328 10.9115ZM175.214 7.89583L175.092 7.41044L175.092 7.4106L175.214 7.89583ZM186.234 5.42187L186.137 4.9312L186.137 4.9312L186.234 5.42187ZM197.365 3.48958L197.291 2.9947L197.291 2.99481L197.365 3.48958ZM208.573 2.10938L208.524 1.6115L208.524 1.61151L208.573 2.10938ZM219.839 1.27604L219.814 0.776341L219.814 0.776376L219.839 1.27604ZM242.422 1.27604L242.447 0.776375L242.446 0.776342L242.422 1.27604ZM253.687 2.10938L253.638 2.60725L253.638 2.60725L253.687 2.10938ZM264.896 3.48958L264.97 2.99479L264.969 2.9947L264.896 3.48958ZM276.026 5.42187L276.124 4.9312L276.124 4.9312L276.026 5.42187ZM287.047 7.89583L287.168 7.41056L287.168 7.41044L287.047 7.89583ZM297.932 10.9115L297.787 11.3902L297.787 11.3902L297.932 10.9115ZM319.198 18.5208L319.006 18.983L319.007 18.9832L319.198 18.5208ZM329.526 23.0937L329.74 22.6418L329.74 22.6414L329.526 23.0937ZM339.615 28.1771L339.379 28.6183L339.379 28.6186L339.615 28.1771ZM349.443 33.7396L349.7 33.3106L349.7 33.3103L349.443 33.7396ZM358.984 39.7864L358.706 40.2023L358.707 40.2026L358.984 39.7864ZM368.219 46.2864L368.517 45.8846L368.516 45.8843L368.219 46.2864ZM385.677 60.6146L386.013 60.2439L386.013 60.2436L385.677 60.6146ZM393.859 68.4062L393.505 68.7596L393.506 68.76L393.859 68.4062ZM401.646 76.5833L401.275 76.9193L401.275 76.9194L401.646 76.5833ZM409.026 85.1406L408.639 85.4581L408.639 85.4581L409.026 85.1406ZM415.974 94.0416L416.376 93.7436L416.376 93.7436L415.974 94.0416ZM422.479 103.276L422.895 102.998L422.895 102.998L422.479 103.276ZM428.521 112.823L428.092 113.08L428.092 113.08L428.521 112.823ZM434.088 122.651L433.647 122.887L433.647 122.887L434.088 122.651ZM443.745 143.062L444.207 142.871L444.207 142.871L443.745 143.062ZM447.812 153.604L448.284 153.436L448.283 153.435L447.812 153.604ZM451.354 164.328L450.875 164.473L450.875 164.473L451.354 164.328ZM454.364 175.213L453.879 175.335L453.879 175.335L454.364 175.213ZM456.838 186.234L456.348 186.332L456.348 186.332L456.838 186.234ZM458.771 197.365L458.276 197.438L458.276 197.438L458.771 197.365ZM460.156 208.578L459.658 208.627L459.658 208.627L460.156 208.578ZM460.984 219.838L460.485 219.863L460.485 219.863L460.984 219.838ZM122.24 239.99H121.74V240.49H122.24V239.99ZM340.016 239.99V240.49H340.517V239.99H340.016ZM166.193 271.396L166.243 271.894L166.243 271.894L166.193 271.396ZM161.339 272.115L161.242 271.624L161.241 271.624L161.339 272.115ZM156.574 273.312L156.718 273.791L156.72 273.791L156.574 273.312ZM151.954 274.964L152.145 275.426L152.145 275.426L151.954 274.964ZM147.516 277.062L147.751 277.504L147.752 277.504L147.516 277.062ZM143.303 279.589L143.58 280.005L143.581 280.005L143.303 279.589ZM139.36 282.51L139.043 282.123L139.042 282.124L139.36 282.51ZM135.719 285.807L135.366 285.453L135.365 285.454L135.719 285.807ZM132.423 289.448L132.036 289.13L132.035 289.131L132.423 289.448ZM129.501 293.391L129.916 293.669L129.917 293.668L129.501 293.391ZM126.975 297.599L126.534 297.362L126.533 297.364L126.975 297.599ZM124.876 302.042L124.414 301.85L124.413 301.85L124.876 302.042ZM123.225 306.661L123.703 306.808L123.703 306.806L123.225 306.661ZM122.032 311.422L122.522 311.52L122.523 311.519L122.032 311.422ZM121.308 316.281L121.806 316.331L121.806 316.331L121.308 316.281ZM121.308 326.089L121.806 326.039L121.806 326.039L121.308 326.089ZM122.032 330.943L122.523 330.846L122.522 330.844L122.032 330.943ZM123.225 335.708L123.703 335.564L123.703 335.562L123.225 335.708ZM124.876 340.328L124.413 340.519L124.414 340.52L124.876 340.328ZM126.975 344.766L126.533 345.001L126.534 345.002L126.975 344.766ZM129.501 348.979L129.917 348.701L129.917 348.701L129.501 348.979ZM132.423 352.922L132.035 353.239L132.036 353.24L132.423 352.922ZM135.719 356.562L135.365 356.915L135.366 356.917L135.719 356.562ZM139.36 359.859L139.042 360.246L139.043 360.246L139.36 359.859ZM147.516 365.307L147.28 365.748L147.281 365.749L147.516 365.307ZM151.954 367.406L151.762 367.868L151.762 367.869L151.954 367.406ZM156.574 369.057L156.72 368.579L156.718 368.578L156.574 369.057ZM161.339 370.25L161.438 369.76L161.436 369.759L161.339 370.25ZM166.193 370.974L166.144 371.472L166.146 371.472L166.193 370.974ZM296.068 370.974L296.116 371.472L296.118 371.472L296.068 370.974ZM300.928 370.25L300.831 369.759L300.829 369.759L300.928 370.25ZM305.688 369.057L305.543 368.578L305.542 368.579L305.688 369.057ZM310.313 367.406L310.504 367.869L310.506 367.868L310.313 367.406ZM314.751 365.307L314.986 365.749L314.988 365.748L314.751 365.307ZM318.959 362.781L318.681 362.365L318.68 362.366L318.959 362.781ZM322.902 359.859L323.219 360.246L323.219 360.246L322.902 359.859ZM326.542 356.562L326.895 356.917L326.897 356.915L326.542 356.562ZM329.839 352.922L330.225 353.24L330.226 353.239L329.839 352.922ZM332.761 348.979L332.345 348.701L332.344 348.702L332.761 348.979ZM335.287 344.766L334.846 344.53L334.846 344.531L335.287 344.766ZM337.386 340.328L336.924 340.137L336.924 340.137L337.386 340.328ZM339.042 335.708L339.521 335.855L339.521 335.853L339.042 335.708ZM340.235 330.943L340.726 331.041L340.726 331.04L340.235 330.943ZM340.954 326.089L341.452 326.138L341.452 326.138L340.954 326.089ZM340.954 316.281L341.452 316.232L341.452 316.232L340.954 316.281ZM340.235 311.422L340.726 311.325L340.725 311.323L340.235 311.422ZM339.042 306.661L339.521 306.517L339.521 306.515L339.042 306.661ZM337.386 302.042L336.924 302.232L336.924 302.233L337.386 302.042ZM335.287 297.599L335.729 297.364L335.728 297.363L335.287 297.599ZM332.761 293.391L332.344 293.667L332.346 293.669L332.761 293.391ZM329.839 289.448L330.226 289.131L330.225 289.13L329.839 289.448ZM326.542 285.807L326.897 285.454L326.895 285.453L326.542 285.807ZM322.902 282.51L323.219 282.123L323.219 282.123L322.902 282.51ZM318.959 279.589L318.68 280.004L318.682 280.005L318.959 279.589ZM314.751 277.062L314.986 276.621L314.986 276.621L314.751 277.062ZM310.313 274.964L310.504 274.501L310.504 274.501L310.313 274.964ZM305.688 273.312L305.542 273.791L305.543 273.791L305.688 273.312ZM300.928 272.115L301.026 271.624L301.025 271.624L300.928 272.115ZM296.068 271.396L296.019 271.894L296.019 271.894L296.068 271.396ZM461.484 242.452C461.672 238.678 461.761 234.909 461.761 231.13H460.76C460.76 234.893 460.672 238.645 460.485 242.402L461.484 242.452ZM460.654 253.737C461.025 249.983 461.301 246.22 461.484 242.451L460.485 242.403C460.303 246.155 460.027 249.902 459.658 253.638L460.654 253.737ZM459.266 264.974C459.819 261.242 460.283 257.495 460.654 253.736L459.658 253.638C459.289 257.38 458.827 261.112 458.276 264.828L459.266 264.974ZM457.329 276.129C458.07 272.423 458.712 268.706 459.266 264.974L458.276 264.828C457.725 268.544 457.086 272.244 456.348 275.933L457.329 276.129ZM454.85 287.174C455.768 283.509 456.593 279.829 457.329 276.129L456.348 275.934C455.615 279.618 454.794 283.282 453.879 286.93L454.85 287.174ZM451.833 298.083C452.929 294.471 453.936 290.832 454.85 287.173L453.879 286.931C452.97 290.574 451.967 294.196 450.875 297.792L451.833 298.083ZM448.284 308.829C449.552 305.275 450.737 301.695 451.833 298.083L450.875 297.792C449.784 301.388 448.604 304.954 447.341 308.493L448.284 308.829ZM444.207 319.389C445.653 315.903 447.01 312.385 448.283 308.83L447.341 308.493C446.073 312.032 444.722 315.535 443.283 319.006L444.207 319.389ZM439.619 329.74C441.232 326.326 442.761 322.881 444.207 319.389L443.282 319.006C441.843 322.483 440.32 325.913 438.714 329.312L439.619 329.74ZM434.53 339.851C436.31 336.525 438.006 333.153 439.619 329.74L438.714 329.312C437.108 332.711 435.419 336.068 433.647 339.378L434.53 339.851ZM428.95 349.7C430.892 346.464 432.75 343.18 434.53 339.85L433.647 339.379C431.875 342.694 430.025 345.963 428.092 349.185L428.95 349.7ZM422.895 359.267C424.993 356.125 427.008 352.941 428.95 349.7L428.092 349.186C426.158 352.413 424.152 355.583 422.063 358.712L422.895 359.267ZM416.376 368.522C418.625 365.489 420.797 362.404 422.895 359.268L422.063 358.711C419.974 361.835 417.812 364.906 415.572 367.926L416.376 368.522ZM409.413 377.442C411.809 374.524 414.126 371.549 416.375 368.522L415.572 367.925C413.332 370.94 411.024 373.903 408.639 376.807L409.413 377.442ZM402.016 386.018C404.553 383.22 407.017 380.36 409.413 377.442L408.639 376.807C406.254 379.713 403.801 382.561 401.275 385.346L402.016 386.018ZM394.213 394.213C396.88 391.546 399.485 388.811 402.016 386.018L401.275 385.346C398.755 388.127 396.161 390.85 393.506 393.505L394.213 394.213ZM386.013 402.022C388.81 399.485 391.546 396.886 394.213 394.213L393.505 393.506C390.85 396.166 388.127 398.754 385.341 401.28L386.013 402.022ZM377.442 409.413C380.36 407.017 383.215 404.553 386.013 402.022L385.341 401.28C382.555 403.801 379.713 406.254 376.807 408.639L377.442 409.413ZM368.516 416.376C371.549 414.131 374.525 411.808 377.442 409.413L376.807 408.639C373.902 411.025 370.94 413.337 367.921 415.572L368.516 416.376ZM359.262 422.895C362.399 420.797 365.484 418.625 368.517 416.376L367.921 415.572C364.901 417.812 361.83 419.974 358.706 422.063L359.262 422.895ZM349.7 428.95C352.936 427.013 356.125 424.993 359.262 422.895L358.706 422.063C355.583 424.152 352.408 426.163 349.186 428.091L349.7 428.95ZM339.85 434.53C343.181 432.755 346.464 430.891 349.7 428.95L349.185 428.092C345.963 430.025 342.694 431.88 339.379 433.647L339.85 434.53ZM329.74 439.624C333.148 438.006 336.52 436.31 339.85 434.53L339.379 433.647C336.063 435.419 332.706 437.108 329.311 438.72L329.74 439.624ZM319.389 444.207C322.876 442.766 326.326 441.237 329.74 439.624L329.312 438.719C325.913 440.325 322.478 441.848 319.007 443.282L319.389 444.207ZM308.83 448.283C312.385 447.01 315.903 445.653 319.389 444.207L319.006 443.282C315.535 444.722 312.032 446.073 308.493 447.341L308.83 448.283ZM298.077 451.833C301.689 450.737 305.275 449.557 308.83 448.283L308.493 447.341C304.954 448.609 301.384 449.784 297.787 450.875L298.077 451.833ZM287.168 454.855C290.833 453.936 294.466 452.929 298.077 451.833L297.787 450.875C294.19 451.967 290.573 452.97 286.925 453.884L287.168 454.855ZM276.124 457.334C279.824 456.598 283.509 455.768 287.168 454.855L286.926 453.884C283.282 454.794 279.613 455.62 275.928 456.353L276.124 457.334ZM264.97 459.271C268.706 458.712 272.423 458.07 276.124 457.334L275.928 456.353C272.244 457.086 268.544 457.725 264.822 458.281L264.97 459.271ZM253.737 460.654C257.494 460.283 261.237 459.824 264.969 459.271L264.822 458.281C261.107 458.832 257.38 459.289 253.638 459.658L253.737 460.654ZM242.447 461.489C246.215 461.301 249.978 461.025 253.737 460.654L253.638 459.658C249.897 460.027 246.149 460.303 242.397 460.49L242.447 461.489ZM231.13 461.766C234.904 461.766 238.678 461.672 242.446 461.489L242.398 460.49C238.645 460.672 234.887 460.765 231.13 460.765V461.766ZM219.814 461.489C223.583 461.672 227.356 461.766 231.13 461.766V460.765C227.373 460.765 223.615 460.672 219.863 460.49L219.814 461.489ZM208.524 460.654C212.282 461.025 216.045 461.301 219.814 461.489L219.863 460.49C216.111 460.303 212.364 460.027 208.622 459.658L208.524 460.654ZM197.291 459.271C201.023 459.824 204.771 460.283 208.524 460.654L208.622 459.658C204.885 459.289 201.154 458.832 197.438 458.281L197.291 459.271ZM186.137 457.334C189.838 458.07 193.559 458.712 197.291 459.271L197.439 458.281C193.722 457.725 190.016 457.086 186.332 456.353L186.137 457.334ZM175.092 454.855C178.751 455.768 182.436 456.598 186.137 457.334L186.332 456.353C182.647 455.62 178.978 454.794 175.335 453.884L175.092 454.855ZM164.183 451.833C167.795 452.929 171.433 453.936 175.092 454.855L175.335 453.884C171.692 452.97 168.07 451.967 164.473 450.875L164.183 451.833ZM153.435 448.283C156.985 449.557 160.571 450.737 164.183 451.833L164.473 450.875C160.877 449.784 157.306 448.609 153.773 447.341L153.435 448.283ZM142.871 444.207C146.358 445.653 149.881 447.01 153.435 448.283L153.773 447.341C150.233 446.073 146.725 444.722 143.254 443.282L142.871 444.207ZM132.521 439.624C135.934 441.237 139.384 442.766 142.871 444.207L143.254 443.282C139.782 441.848 136.347 440.325 132.948 438.719L132.521 439.624ZM122.41 434.53C125.74 436.31 129.112 438.006 132.52 439.624L132.949 438.72C129.555 437.108 126.197 435.419 122.882 433.647L122.41 434.53ZM112.561 428.95C115.802 430.891 119.085 432.755 122.41 434.53L122.881 433.647C119.571 431.88 116.302 430.025 113.075 428.092L112.561 428.95ZM102.998 422.895C106.135 424.993 109.324 427.013 112.561 428.95L113.075 428.091C109.853 426.163 106.677 424.152 103.554 422.063L102.998 422.895ZM93.7436 416.376C96.7763 418.625 99.8611 420.797 102.998 422.895L103.554 422.063C100.431 419.974 97.3591 417.812 94.3397 415.572L93.7436 416.376ZM84.8179 409.413C87.7357 411.808 90.7111 414.131 93.744 416.376L94.3393 415.572C91.3201 413.337 88.358 411.025 85.4529 408.639L84.8179 409.413ZM76.2476 402.022C79.0451 404.553 81.9002 407.017 84.8179 409.413L85.4529 408.639C82.5477 406.254 79.7048 403.801 76.919 401.28L76.2476 402.022ZM68.0473 394.213C70.7197 396.885 73.4496 399.485 76.2473 402.022L76.9194 401.28C74.1337 398.755 71.4157 396.166 68.7548 393.505L68.0473 394.213ZM60.2443 386.019C62.7806 388.811 65.3798 391.546 68.0473 394.213L68.7548 393.505C66.0993 390.85 63.5111 388.127 60.9849 385.346L60.2443 386.019ZM52.8477 377.442C55.2433 380.36 57.707 383.22 60.244 386.018L60.9852 385.346C58.4596 382.561 56.0067 379.713 53.621 376.807L52.8477 377.442ZM45.8849 368.522C48.1344 371.549 50.457 374.524 52.8474 377.442L53.6213 376.808C51.2409 373.902 48.9281 370.94 46.688 367.925L45.8849 368.522ZM39.3654 359.268C41.4636 362.404 43.6349 365.489 45.8846 368.522L46.6882 367.926C44.4484 364.906 42.2864 361.835 40.1971 358.711L39.3654 359.268ZM33.3104 349.7C35.2523 352.941 37.2722 356.125 39.3649 359.267L40.1976 358.712C38.1132 355.583 36.1019 352.413 34.1687 349.186L33.3104 349.7ZM27.7306 339.85C29.5105 343.18 31.3687 346.464 33.3106 349.7L34.1686 349.185C32.2354 345.963 30.3853 342.694 28.6131 339.379L27.7306 339.85ZM22.6414 329.74C24.2543 333.153 25.9508 336.525 27.7308 339.851L28.6129 339.378C26.8409 336.068 25.1519 332.711 23.5461 329.312L22.6414 329.74ZM18.0534 319.389C19.4993 322.881 21.0287 326.326 22.6414 329.74L23.5461 329.312C21.9401 325.913 20.4173 322.483 18.9779 319.006L18.0534 319.389ZM13.9819 308.829C15.2504 312.384 16.6076 315.903 18.0535 319.389L18.9778 319.006C17.5382 315.535 16.1871 312.032 14.9243 308.493L13.9819 308.829ZM10.4275 298.083C11.5237 301.695 12.7086 305.276 13.9822 308.83L14.9241 308.493C13.656 304.953 12.4763 301.388 11.385 297.792L10.4275 298.083ZM7.4106 287.174C8.32923 290.833 9.33655 294.47 10.4273 298.082L11.3852 297.793C10.2989 294.196 9.29576 290.573 8.38106 286.93L7.4106 287.174ZM4.9312 276.129C5.66714 279.829 6.49186 283.509 7.41056 287.174L8.3811 286.93C7.46647 283.282 6.64535 279.618 5.91255 275.934L4.9312 276.129ZM2.9947 264.974C3.54802 268.707 4.19526 272.423 4.93117 276.129L5.91258 275.934C5.17974 272.244 4.53531 268.543 3.98446 264.828L2.9947 264.974ZM1.61143 253.736C1.97687 257.495 2.44145 261.243 2.9947 264.974L3.98446 264.828C3.43354 261.112 2.97104 257.38 2.60731 253.639L1.61143 253.736ZM0.776375 242.452C0.964266 246.22 1.2409 249.983 1.61151 253.737L2.60724 253.638C2.23827 249.902 1.96282 246.155 1.77571 242.402L0.776375 242.452ZM0.499713 231.13C0.499713 234.909 0.59367 238.678 0.776339 242.451L1.77574 242.403C1.59383 238.645 1.50029 234.893 1.50029 231.13H0.499713ZM0.776339 219.814C0.59367 223.588 0.499713 227.356 0.499713 231.13H1.50029C1.50029 227.373 1.59383 223.62 1.77574 219.863L0.776339 219.814ZM1.61151 208.529C1.2409 212.282 0.964266 216.045 0.776375 219.814L1.77571 219.863C1.96282 216.111 2.23827 212.364 2.60724 208.627L1.61151 208.529ZM2.9947 197.291C2.44145 201.023 1.97687 204.771 1.61143 208.53L2.60731 208.626C2.97104 204.885 3.43354 201.154 3.98446 197.438L2.9947 197.291ZM4.93117 186.137C4.19526 189.842 3.54802 193.559 2.9947 197.291L3.98446 197.438C4.53531 193.722 5.17974 190.022 5.91258 186.332L4.93117 186.137ZM7.41056 175.092C6.49186 178.756 5.66714 182.436 4.9312 186.137L5.91255 186.332C6.64535 182.647 7.46647 178.983 8.3811 175.335L7.41056 175.092ZM10.4273 164.183C9.33655 167.795 8.32923 171.433 7.4106 175.092L8.38106 175.335C9.29576 171.692 10.2989 168.069 11.3852 164.473L10.4273 164.183ZM13.9822 153.435C12.7086 156.99 11.5237 160.571 10.4275 164.183L11.385 164.473C12.4763 160.877 13.656 157.312 14.9241 153.773L13.9822 153.435ZM18.0534 142.871C16.6076 146.363 15.2504 149.881 13.9819 153.436L14.9243 153.772C16.1871 150.233 17.5383 146.731 18.9779 143.254L18.0534 142.871ZM22.6414 132.526C21.0287 135.939 19.4994 139.384 18.0535 142.871L18.9778 143.254C20.4173 139.783 21.9401 136.352 23.5461 132.953L22.6414 132.526ZM27.7308 122.415C25.9508 125.74 24.2543 129.112 22.6414 132.526L23.5461 132.953C25.1519 129.554 26.8409 126.197 28.6129 122.887L27.7308 122.415ZM33.3106 112.565C31.3687 115.802 29.5105 119.085 27.7307 122.415L28.6131 122.887C30.3853 119.571 32.2354 116.302 34.1686 113.08L33.3106 112.565ZM39.3649 102.999C37.2722 106.14 35.2523 109.324 33.3104 112.566L34.1687 113.08C36.1019 109.853 38.1132 106.683 40.1976 103.553L39.3649 102.999ZM45.8846 93.7436C43.6349 96.7763 41.4636 99.8611 39.3654 102.998L40.1971 103.554C42.2864 100.431 44.4484 97.3591 46.6882 94.3397L45.8846 93.7436ZM52.8474 84.8235C50.4572 87.7408 48.1345 90.7107 45.8846 93.7436L46.6882 94.3397C48.928 91.3205 51.2407 88.3633 53.6213 85.4577L52.8474 84.8235ZM60.244 76.2473C57.707 79.0452 55.2433 81.9056 52.8477 84.8231L53.621 85.4581C56.0067 82.5527 58.4596 79.7047 60.9852 76.9194L60.244 76.2473ZM68.0473 68.0525C65.3798 70.7199 62.7806 73.4549 60.2443 76.2469L60.9849 76.9197C63.5111 74.1388 66.0993 71.4154 68.7548 68.76L68.0473 68.0525ZM76.2473 60.2439C73.4496 62.7807 70.7197 65.38 68.0473 68.0525L68.7548 68.76C71.4157 66.0991 74.1337 63.511 76.9194 60.9852L76.2473 60.2439ZM84.8179 52.8529C81.9002 55.2487 79.0451 57.7123 76.2476 60.2436L76.919 60.9855C79.7048 58.4648 82.5477 56.0117 85.4529 53.6262L84.8179 52.8529ZM93.7436 45.8846C90.7109 48.1343 87.7357 50.4571 84.8179 52.8529L85.4529 53.6262C88.358 51.2408 91.3203 48.9281 94.3397 46.6882L93.7436 45.8846ZM102.998 39.3703C99.8609 41.4637 96.7761 43.6402 93.744 45.8843L94.3393 46.6886C97.3592 44.4535 100.431 42.2863 103.554 40.2026L102.998 39.3703ZM112.56 33.3106C109.324 35.2522 106.135 37.2722 102.998 39.3706L103.554 40.2023C106.677 38.1132 109.853 36.1019 113.075 34.1686L112.56 33.3106ZM122.41 27.7357C119.085 29.5106 115.802 31.374 112.561 33.3101L113.074 34.1691C116.302 32.2406 119.571 30.3852 122.881 28.6184L122.41 27.7357ZM132.52 22.6418C129.112 24.2597 125.74 25.9559 122.41 27.7359L122.882 28.6183C126.197 26.8461 129.555 25.157 132.949 23.5457L132.52 22.6418ZM142.871 18.0585C139.384 19.4992 135.934 21.0286 132.521 22.6414L132.948 23.5461C136.347 21.9401 139.782 20.4175 143.254 18.9832L142.871 18.0585ZM153.435 13.9822C149.881 15.2556 146.358 16.6127 142.871 18.0587L143.254 18.983C146.725 17.5435 150.233 16.1923 153.773 14.9241L153.435 13.9822ZM164.183 10.4327C160.571 11.5287 156.985 12.7084 153.435 13.9822L153.773 14.924C157.306 13.6562 160.877 12.4817 164.473 11.3902L164.183 10.4327ZM175.092 7.4106C171.433 8.32923 167.795 9.33661 164.183 10.4327L164.473 11.3902C168.07 10.2988 171.692 9.29576 175.335 8.38106L175.092 7.4106ZM186.137 4.9312C182.436 5.66721 178.751 6.49711 175.092 7.41044L175.335 8.38122C178.978 7.47163 182.647 6.64529 186.332 5.91255L186.137 4.9312ZM197.291 2.99481C193.559 3.5532 189.838 4.19517 186.137 4.9312L186.332 5.91255C190.016 5.17983 193.722 4.54055 197.439 3.98436L197.291 2.99481ZM208.524 1.61151C204.771 1.98207 201.023 2.44139 197.291 2.9947L197.438 3.98446C201.154 3.43361 204.885 2.97626 208.622 2.60724L208.524 1.61151ZM219.814 0.776376C216.045 0.964268 212.282 1.2409 208.524 1.6115L208.622 2.60725C212.364 2.23827 216.111 1.96282 219.863 1.77571L219.814 0.776376ZM231.13 0.499713C227.356 0.499713 223.583 0.59367 219.814 0.776342L219.863 1.77574C223.615 1.59383 227.373 1.50029 231.13 1.50029V0.499713ZM242.446 0.776342C238.678 0.59367 234.904 0.499713 231.13 0.499713V1.50029C234.887 1.50029 238.645 1.59383 242.398 1.77574L242.446 0.776342ZM253.737 1.6115C249.978 1.2409 246.215 0.964268 242.447 0.776376L242.397 1.77571C246.149 1.96282 249.897 2.23827 253.638 2.60725L253.737 1.6115ZM264.969 2.9947C261.237 2.4414 257.494 1.98207 253.737 1.6115L253.638 2.60725C257.38 2.97626 261.107 3.4336 264.822 3.98446L264.969 2.9947ZM276.124 4.9312C272.423 4.19518 268.706 3.5532 264.97 2.99479L264.822 3.98437C268.544 4.54055 272.244 5.17982 275.928 5.91255L276.124 4.9312ZM287.168 7.41044C283.509 6.49711 279.824 5.66721 276.124 4.9312L275.928 5.91255C279.613 6.64529 283.282 7.47163 286.926 8.38122L287.168 7.41044ZM298.077 10.4327C294.466 9.33664 290.833 8.32924 287.168 7.41056L286.925 8.3811C290.573 9.29575 294.19 10.2988 297.787 11.3902L298.077 10.4327ZM308.83 13.9822C305.275 12.7084 301.689 11.5287 298.077 10.4327L297.787 11.3902C301.384 12.4817 304.954 13.6562 308.493 14.9241L308.83 13.9822ZM319.389 18.0587C315.903 16.6128 312.385 15.2557 308.83 13.9822L308.493 14.9241C312.032 16.1922 315.535 17.5434 319.006 18.983L319.389 18.0587ZM329.74 22.6414C326.326 21.0286 322.876 19.4992 319.389 18.0585L319.007 18.9832C322.478 20.4175 325.913 21.9401 329.312 23.5461L329.74 22.6414ZM339.85 27.7359C336.52 25.9559 333.148 24.2597 329.74 22.6418L329.311 23.5457C332.706 25.157 336.063 26.8461 339.379 28.6183L339.85 27.7359ZM349.7 33.3103C346.464 31.3741 343.181 29.5106 339.85 27.7356L339.379 28.6186C342.694 30.3852 345.963 32.2405 349.186 34.1689L349.7 33.3103ZM359.262 39.3706C356.125 37.2722 352.936 35.2522 349.7 33.3106L349.185 34.1686C352.407 36.1019 355.583 38.1132 358.706 40.2023L359.262 39.3706ZM368.516 45.8843C365.484 43.6402 362.399 41.4637 359.262 39.3703L358.707 40.2026C361.83 42.2863 364.901 44.4535 367.921 46.6886L368.516 45.8843ZM377.442 52.8529C374.525 50.4571 371.549 48.1343 368.517 45.8846L367.921 46.6882C370.94 48.9281 373.902 51.2408 376.807 53.6262L377.442 52.8529ZM386.013 60.2436C383.215 57.7123 380.36 55.2487 377.442 52.8529L376.807 53.6262C379.713 56.0117 382.555 58.4648 385.341 60.9855L386.013 60.2436ZM394.213 68.0528C391.546 65.3799 388.81 62.7804 386.013 60.2439L385.341 60.9852C388.127 63.5112 390.85 66.0992 393.505 68.7596L394.213 68.0528ZM402.016 76.2473C399.485 73.4548 396.88 70.7197 394.213 68.0525L393.506 68.76C396.161 71.4157 398.755 74.1389 401.275 76.9193L402.016 76.2473ZM409.413 84.8231C407.017 81.9056 404.553 79.0452 402.016 76.2473L401.275 76.9194C403.801 79.7047 406.254 82.5527 408.639 85.4581L409.413 84.8231ZM416.376 93.7436C414.126 90.711 411.808 87.741 409.413 84.8231L408.639 85.4581C411.025 88.3631 413.332 91.3202 415.572 94.3397L416.376 93.7436ZM422.895 102.998C420.797 99.8611 418.625 96.7763 416.376 93.7436L415.572 94.3397C417.812 97.3591 419.974 100.431 422.063 103.554L422.895 102.998ZM428.95 112.566C427.008 109.324 424.993 106.14 422.895 102.998L422.063 103.554C424.152 106.682 426.158 109.853 428.092 113.08L428.95 112.566ZM434.53 122.415C432.75 119.085 430.892 115.802 428.95 112.565L428.092 113.08C430.025 116.302 431.875 119.571 433.647 122.887L434.53 122.415ZM439.619 132.526C438.006 129.112 436.31 125.74 434.53 122.415L433.647 122.887C435.419 126.197 437.108 129.554 438.714 132.953L439.619 132.526ZM444.207 142.871C442.761 139.384 441.232 135.939 439.619 132.526L438.714 132.953C440.32 136.352 441.843 139.783 443.283 143.254L444.207 142.871ZM448.283 153.435C447.01 149.881 445.653 146.363 444.207 142.871L443.282 143.254C444.722 146.731 446.073 150.234 447.341 153.773L448.283 153.435ZM451.833 164.183C450.737 160.571 449.552 156.99 448.284 153.436L447.341 153.772C448.604 157.312 449.784 160.877 450.875 164.473L451.833 164.183ZM454.85 175.092C453.936 171.433 452.929 167.795 451.833 164.183L450.875 164.473C451.967 168.07 452.97 171.692 453.879 175.335L454.85 175.092ZM457.329 186.137C456.593 182.436 455.768 178.756 454.85 175.092L453.879 175.335C454.794 178.983 455.615 182.647 456.348 186.332L457.329 186.137ZM459.266 197.291C458.712 193.559 458.07 189.843 457.329 186.136L456.348 186.332C457.086 190.022 457.725 193.722 458.276 197.438L459.266 197.291ZM460.654 208.529C460.283 204.771 459.819 201.023 459.266 197.291L458.276 197.438C458.827 201.154 459.289 204.885 459.658 208.627L460.654 208.529ZM461.484 219.814C461.301 216.046 461.025 212.282 460.654 208.529L459.658 208.627C460.027 212.364 460.303 216.111 460.485 219.863L461.484 219.814ZM461.761 231.13C461.761 227.357 461.672 223.588 461.484 219.814L460.485 219.863C460.672 223.62 460.76 227.372 460.76 231.13H461.761ZM231.131 84.0573C194.699 84.0573 167.31 97.0688 149.053 123.129C130.819 149.157 121.74 188.137 121.74 239.99H122.741C122.741 188.223 131.81 149.487 149.873 123.703C167.913 97.9527 194.969 85.0579 231.131 85.0579V84.0573ZM340.517 239.99C340.517 188.137 331.438 149.157 313.204 123.129C294.948 97.0688 267.561 84.0573 231.131 84.0573V85.0579C267.29 85.0579 294.345 97.9527 312.385 123.703C330.447 149.487 339.516 188.223 339.516 239.99H340.517ZM122.24 240.49H340.016V239.49H122.24V240.49ZM171.1 271.657H291.167V270.656H171.1V271.657ZM166.243 271.894C167.856 271.734 169.475 271.657 171.1 271.657V270.656C169.443 270.656 167.791 270.735 166.144 270.898L166.243 271.894ZM161.436 272.605C163.025 272.291 164.628 272.054 166.243 271.894L166.144 270.898C164.498 271.061 162.862 271.303 161.242 271.624L161.436 272.605ZM156.72 273.791C158.271 273.317 159.843 272.925 161.438 272.605L161.241 271.624C159.616 271.95 158.012 272.35 156.427 272.834L156.72 273.791ZM152.145 275.426C153.641 274.807 155.167 274.26 156.718 273.791L156.429 272.834C154.845 273.312 153.288 273.87 151.762 274.501L152.145 275.426ZM147.752 277.504C149.181 276.74 150.645 276.044 152.145 275.426L151.763 274.501C150.231 275.133 148.737 275.843 147.281 276.621L147.752 277.504ZM143.581 280.005C144.932 279.102 146.319 278.267 147.751 277.504L147.281 276.621C145.818 277.4 144.402 278.252 143.025 279.173L143.581 280.005ZM139.677 282.897C140.931 281.871 142.23 280.901 143.58 280.005L143.026 279.172C141.646 280.088 140.32 281.077 139.043 282.123L139.677 282.897ZM136.072 286.162C137.223 285.017 138.424 283.928 139.678 282.897L139.042 282.124C137.764 283.176 136.539 284.285 135.366 285.453L136.072 286.162ZM132.809 289.766C133.84 288.512 134.929 287.311 136.074 286.16L135.365 285.454C134.197 286.627 133.088 287.852 132.036 289.13L132.809 289.766ZM129.917 293.668C130.819 292.318 131.783 291.018 132.81 289.765L132.035 289.131C130.989 290.409 130.005 291.734 129.085 293.113L129.917 293.668ZM127.415 297.836C128.184 296.406 129.015 295.014 129.916 293.669L129.085 293.112C128.164 294.486 127.317 295.906 126.534 297.362L127.415 297.836ZM125.338 302.234C125.962 300.733 126.653 299.268 127.416 297.834L126.533 297.364C125.755 298.826 125.05 300.32 124.414 301.85L125.338 302.234ZM123.703 306.806C124.173 305.255 124.719 303.728 125.338 302.233L124.413 301.85C123.782 303.376 123.225 304.933 122.746 306.517L123.703 306.806ZM122.523 311.519C122.837 309.931 123.229 308.359 123.703 306.808L122.746 306.515C122.262 308.1 121.862 309.705 121.541 311.325L122.523 311.519ZM121.806 316.331C121.966 314.716 122.203 313.113 122.522 311.52L121.541 311.323C121.215 312.95 120.973 314.586 120.81 316.232L121.806 316.331ZM121.569 321.182C121.569 319.563 121.646 317.944 121.806 316.331L120.81 316.232C120.647 317.879 120.568 319.531 120.568 321.182H121.569ZM121.806 326.039C121.646 324.426 121.569 322.807 121.569 321.182H120.568C120.568 322.839 120.647 324.491 120.81 326.138L121.806 326.039ZM122.522 330.844C122.203 329.257 121.966 327.653 121.806 326.039L120.81 326.138C120.973 327.784 121.215 329.42 121.541 331.041L122.522 330.844ZM123.703 335.562C123.229 334.011 122.837 332.439 122.523 330.846L121.541 331.04C121.862 332.665 122.262 334.27 122.746 335.855L123.703 335.562ZM125.338 340.137C124.719 338.641 124.173 337.115 123.703 335.564L122.746 335.853C123.225 337.437 123.782 338.994 124.413 340.519L125.338 340.137ZM127.416 344.53C126.653 343.102 125.962 341.637 125.338 340.136L124.414 340.52C125.05 342.05 125.755 343.544 126.533 345.001L127.416 344.53ZM129.917 348.701C129.014 347.35 128.184 345.963 127.416 344.529L126.534 345.002C127.317 346.464 128.164 347.879 129.085 349.257L129.917 348.701ZM132.81 352.605C131.783 351.352 130.819 350.052 129.917 348.701L129.085 349.257C130.005 350.635 130.989 351.961 132.035 353.239L132.81 352.605ZM136.074 356.21C134.929 355.059 133.84 353.857 132.809 352.604L132.036 353.24C133.088 354.518 134.197 355.743 135.365 356.915L136.074 356.21ZM139.678 359.473C138.425 358.441 137.223 357.353 136.072 356.208L135.366 356.917C136.539 358.084 137.764 359.194 139.042 360.246L139.678 359.473ZM143.581 362.365C142.23 361.463 140.93 360.499 139.677 359.472L139.043 360.246C140.321 361.293 141.647 362.277 143.025 363.197L143.581 362.365ZM147.753 364.866C146.319 364.098 144.931 363.268 143.581 362.365L143.025 363.197C144.403 364.118 145.818 364.965 147.28 365.748L147.753 364.866ZM152.146 366.944C150.645 366.32 149.18 365.629 147.752 364.866L147.281 365.749C148.738 366.527 150.232 367.232 151.762 367.868L152.146 366.944ZM156.718 368.578C155.167 368.109 153.641 367.563 152.145 366.944L151.762 367.869C153.288 368.5 154.845 369.057 156.429 369.536L156.718 368.578ZM161.436 369.759C159.843 369.445 158.271 369.053 156.72 368.579L156.427 369.536C158.012 370.02 159.617 370.42 161.242 370.741L161.436 369.759ZM166.243 370.476C164.628 370.316 163.025 370.079 161.438 369.76L161.24 370.74C162.862 371.067 164.498 371.309 166.144 371.472L166.243 370.476ZM171.1 370.713C169.476 370.713 167.856 370.631 166.241 370.476L166.146 371.472C167.791 371.63 169.442 371.714 171.1 371.714V370.713ZM291.167 370.713H171.1V371.714H291.167V370.713ZM296.021 370.476C294.405 370.631 292.786 370.713 291.167 370.713V371.714C292.82 371.714 294.471 371.63 296.116 371.472L296.021 370.476ZM300.829 369.759C299.237 370.079 297.633 370.316 296.019 370.476L296.118 371.472C297.764 371.309 299.4 371.067 301.026 370.741L300.829 369.759ZM305.542 368.579C303.991 369.053 302.419 369.445 300.831 369.759L301.025 370.741C302.645 370.42 304.25 370.02 305.834 369.536L305.542 368.579ZM310.122 366.944C308.621 367.563 307.095 368.109 305.543 368.578L305.833 369.536C307.417 369.057 308.974 368.5 310.504 367.869L310.122 366.944ZM314.516 364.866C313.082 365.629 311.617 366.32 310.121 366.945L310.506 367.868C312.03 367.232 313.524 366.527 314.986 365.749L314.516 364.866ZM318.68 362.366C317.336 363.267 315.943 364.098 314.514 364.867L314.988 365.748C316.443 364.965 317.864 364.118 319.238 363.197L318.68 362.366ZM322.585 359.472C321.331 360.499 320.032 361.463 318.681 362.365L319.237 363.197C320.615 362.277 321.941 361.293 323.219 360.246L322.585 359.472ZM326.189 356.208C325.039 357.354 323.842 358.442 322.585 359.472L323.219 360.246C324.503 359.194 325.723 358.084 326.895 356.917L326.189 356.208ZM329.453 352.604C328.421 353.857 327.333 355.059 326.188 356.21L326.897 356.915C328.064 355.743 329.174 354.518 330.225 353.24L329.453 352.604ZM332.344 348.702C331.448 350.052 330.479 351.351 329.452 352.605L330.226 353.239C331.272 351.962 332.262 350.636 333.178 349.256L332.344 348.702ZM334.846 344.531C334.083 345.963 333.248 347.35 332.345 348.701L333.177 349.257C334.097 347.879 334.95 346.464 335.729 345.001L334.846 344.531ZM336.924 340.137C336.305 341.637 335.609 343.101 334.846 344.53L335.728 345.001C336.507 343.545 337.217 342.051 337.849 340.519L336.924 340.137ZM338.564 335.562C338.089 337.115 337.543 338.641 336.924 340.137L337.848 340.519C338.48 338.994 339.037 337.437 339.521 335.855L338.564 335.562ZM339.745 330.844C339.425 332.439 339.033 334.012 338.563 335.564L339.521 335.853C340 334.27 340.4 332.666 340.726 331.041L339.745 330.844ZM340.456 326.039C340.296 327.653 340.059 329.257 339.744 330.846L340.726 331.04C341.047 329.42 341.289 327.784 341.452 326.138L340.456 326.039ZM340.693 321.182C340.693 322.807 340.616 324.426 340.456 326.039L341.452 326.138C341.615 324.491 341.694 322.839 341.694 321.182H340.693ZM340.456 316.331C340.616 317.944 340.693 319.563 340.693 321.182H341.694C341.694 319.531 341.615 317.879 341.452 316.232L340.456 316.331ZM339.744 311.519C340.059 313.112 340.296 314.716 340.456 316.331L341.452 316.232C341.289 314.586 341.047 312.95 340.726 311.325L339.744 311.519ZM338.563 306.806C339.033 308.358 339.425 309.931 339.745 311.521L340.725 311.323C340.4 309.704 340 308.1 339.521 306.517L338.563 306.806ZM336.924 302.233C337.543 303.728 338.089 305.255 338.564 306.808L339.521 306.515C339.037 304.932 338.48 303.376 337.848 301.85L336.924 302.233ZM334.846 297.834C335.609 299.269 336.305 300.733 336.924 302.232L337.849 301.851C337.217 300.319 336.507 298.825 335.729 297.364L334.846 297.834ZM332.346 293.669C333.248 295.015 334.083 296.407 334.846 297.835L335.728 297.363C334.95 295.906 334.097 294.485 333.177 293.112L332.346 293.669ZM329.452 289.765C330.479 291.019 331.448 292.318 332.344 293.667L333.178 293.114C332.262 291.734 331.272 290.408 330.226 289.131L329.452 289.765ZM326.188 286.16C327.333 287.311 328.421 288.512 329.453 289.766L330.225 289.13C329.174 287.852 328.064 286.627 326.897 285.454L326.188 286.16ZM322.585 282.897C323.842 283.928 325.039 285.016 326.189 286.162L326.895 285.453C325.723 284.286 324.503 283.176 323.219 282.123L322.585 282.897ZM318.682 280.005C320.032 280.901 321.331 281.871 322.585 282.897L323.219 282.123C321.941 281.077 320.616 280.088 319.236 279.172L318.682 280.005ZM314.515 277.504C315.943 278.267 317.335 279.102 318.68 280.004L319.238 279.173C317.864 278.252 316.444 277.4 314.986 276.621L314.515 277.504ZM310.122 275.426C311.616 276.044 313.081 276.74 314.516 277.504L314.986 276.621C313.524 275.843 312.031 275.133 310.504 274.501L310.122 275.426ZM305.543 273.791C307.095 274.26 308.621 274.807 310.122 275.426L310.504 274.501C308.974 273.87 307.417 273.312 305.833 272.834L305.543 273.791ZM300.829 272.605C302.418 272.925 303.991 273.317 305.542 273.791L305.834 272.834C304.25 272.35 302.646 271.95 301.026 271.624L300.829 272.605ZM296.019 271.894C297.633 272.054 299.237 272.291 300.831 272.605L301.025 271.624C299.4 271.303 297.764 271.061 296.118 270.898L296.019 271.894ZM291.167 271.657C292.787 271.657 294.406 271.734 296.019 271.894L296.118 270.898C294.471 270.735 292.819 270.656 291.167 270.656V271.657Z" fill="#D9D9D9"/>
</svg>
