<svg width="2111" height="581" viewBox="0 0 2111 581" fill="none" xmlns="http://www.w3.org/2000/svg">
<path d="M493.5 0.5H87.5C39.4512 0.5 0.5 39.4512 0.5 87.5V493.5C0.5 541.549 39.4512 580.5 87.5 580.5H493.5C541.549 580.5 580.5 541.549 580.5 493.5V87.5C580.5 39.4512 541.549 0.5 493.5 0.5Z" fill="white"/>
<path d="M290.5 520.5C417.525 520.5 520.5 417.525 520.5 290.5C520.5 163.475 417.525 60.5 290.5 60.5C163.475 60.5 60.5 163.475 60.5 290.5C60.5 417.525 163.475 520.5 290.5 520.5Z" fill="black" stroke="black"/>
<path d="M181.672 299.35C181.672 195.79 217.949 144.01 290.502 144.01C363.049 144.01 399.322 195.79 399.322 299.35H181.672Z" fill="white"/>
<path d="M350.5 330.5H230.5C202.886 330.5 180.5 352.886 180.5 380.5C180.5 408.114 202.886 430.5 230.5 430.5H350.5C378.114 430.5 400.5 408.114 400.5 380.5C400.5 352.886 378.114 330.5 350.5 330.5Z" fill="url(#paint0_linear_19409_21)"/>
<path d="M2010.5 430.5H680.5C663.931 430.5 650.5 443.931 650.5 460.5C650.5 477.069 663.931 490.5 680.5 490.5H2010.5C2027.07 490.5 2040.5 477.069 2040.5 460.5C2040.5 443.931 2027.07 430.5 2010.5 430.5Z" fill="url(#paint1_linear_19409_21)"/>
<path d="M844.414 389.758C820.195 407.857 793.568 416.906 764.531 416.906C743.828 416.906 725.273 412.349 708.867 403.234C692.461 394.12 679.505 381.685 670 365.93C660.495 350.174 655.742 332.401 655.742 312.609C655.742 293.729 660.104 276.867 668.828 262.023C677.552 247.049 689.466 235.266 704.57 226.672C719.674 218.078 736.797 213.781 755.938 213.781C775.729 213.781 793.112 218.469 808.086 227.844C823.19 237.219 834.909 250.305 843.242 267.102C851.706 283.768 855.938 303.104 855.938 325.109V331.359H699.102C701.445 341.516 705.807 350.435 712.188 358.117C718.698 365.669 726.771 371.594 736.406 375.891C746.172 380.057 757.109 382.141 769.219 382.141C790.833 382.141 810.69 375.109 828.789 361.047L844.414 389.758ZM697.344 303.625H818.633C817.331 292.688 813.945 283.182 808.477 275.109C803.008 266.906 795.911 260.526 787.188 255.969C778.594 251.281 768.893 248.938 758.086 248.938C747.148 248.938 737.318 251.281 728.594 255.969C719.87 260.526 712.773 266.906 707.305 275.109C701.966 283.312 698.646 292.818 697.344 303.625ZM1210.04 413H1170V310.852C1170 291.451 1165.83 276.411 1157.5 265.734C1149.3 255.057 1137.71 249.719 1122.73 249.719C1107.5 249.719 1095.59 255.122 1086.99 265.93C1078.4 276.737 1074.1 291.711 1074.1 310.852V413H1034.06V310.852C1034.06 291.451 1029.9 276.411 1021.56 265.734C1013.23 255.057 1001.58 249.719 986.602 249.719C971.367 249.719 959.453 255.122 950.859 265.93C942.266 276.737 937.969 291.711 937.969 310.852V413H897.93V217.688H930.352L931.914 251.672C938.424 239.302 947.214 229.927 958.281 223.547C969.479 217.036 982.63 213.781 997.734 213.781C1013.75 213.781 1027.49 217.297 1038.95 224.328C1050.4 231.359 1059.06 241.451 1064.92 254.602C1071.43 241.19 1080.42 231.034 1091.88 224.133C1103.46 217.232 1117.2 213.781 1133.09 213.781C1157.3 213.781 1176.18 221.464 1189.73 236.828C1203.27 252.193 1210.04 273.612 1210.04 301.086V413ZM1297.73 413H1262.38V120.031H1302.42V242.688C1311.28 233.573 1321.63 226.477 1333.48 221.398C1345.46 216.32 1358.48 213.781 1372.54 213.781C1391.42 213.781 1408.22 218.208 1422.93 227.062C1437.64 235.917 1449.23 248.026 1457.7 263.391C1466.29 278.625 1470.59 295.943 1470.59 315.344C1470.59 334.615 1466.29 351.932 1457.7 367.297C1449.23 382.661 1437.64 394.771 1422.93 403.625C1408.22 412.479 1391.42 416.906 1372.54 416.906C1357.7 416.906 1344.02 414.107 1331.52 408.508C1319.15 402.779 1308.54 394.966 1299.69 385.07L1297.73 413ZM1366.09 380.969C1378.2 380.969 1389.01 378.104 1398.52 372.375C1408.15 366.646 1415.7 358.833 1421.17 348.938C1426.77 339.042 1429.57 327.844 1429.57 315.344C1429.57 302.844 1426.77 291.646 1421.17 281.75C1415.7 271.854 1408.15 264.042 1398.52 258.312C1389.01 252.583 1378.2 249.719 1366.09 249.719C1354.51 249.719 1344.02 252.323 1334.65 257.531C1325.4 262.74 1317.92 269.901 1312.19 279.016C1306.46 288.13 1303.2 298.547 1302.42 310.266V320.227C1303.2 331.815 1306.39 342.232 1311.99 351.477C1317.72 360.591 1325.21 367.818 1334.45 373.156C1343.83 378.365 1354.38 380.969 1366.09 380.969ZM1554.96 413H1512.38V120.031H1554.96V413ZM1699.88 416.906C1680.35 416.906 1662.77 412.479 1647.15 403.625C1631.52 394.771 1619.22 382.727 1610.23 367.492C1601.25 352.128 1596.76 334.745 1596.76 315.344C1596.76 296.073 1601.25 278.82 1610.23 263.586C1619.22 248.221 1631.52 236.112 1647.15 227.258C1662.77 218.273 1680.35 213.781 1699.88 213.781C1719.54 213.781 1737.12 218.273 1752.62 227.258C1768.11 236.112 1780.29 248.221 1789.14 263.586C1798.12 278.82 1802.62 296.073 1802.62 315.344C1802.62 334.745 1798.12 352.128 1789.14 367.492C1780.29 382.727 1768.11 394.771 1752.62 403.625C1737.12 412.479 1719.54 416.906 1699.88 416.906ZM1699.69 380.969C1711.54 380.969 1722.08 378.104 1731.33 372.375C1740.7 366.516 1748.06 358.703 1753.4 348.938C1758.87 339.042 1761.6 327.844 1761.6 315.344C1761.6 302.844 1758.87 291.711 1753.4 281.945C1748.06 272.049 1740.7 264.237 1731.33 258.508C1722.08 252.648 1711.54 249.719 1699.69 249.719C1687.97 249.719 1677.42 252.648 1668.05 258.508C1658.67 264.237 1651.25 272.049 1645.78 281.945C1640.44 291.711 1637.77 302.844 1637.77 315.344C1637.77 327.844 1640.44 339.042 1645.78 348.938C1651.25 358.703 1658.67 366.516 1668.05 372.375C1677.42 378.104 1687.97 380.969 1699.69 380.969ZM1917.66 510.656H1874.49L1915.31 411.828L1820.2 217.688H1864.92L1934.45 365.93L1995.78 217.688H2038.75L1917.66 510.656Z" fill="white"/>
<defs>
<linearGradient id="paint0_linear_19409_21" x1="180.5" y1="330.5" x2="22180.5" y2="330.5" gradientUnits="userSpaceOnUse">
<stop stop-color="#99F7CB"/>
<stop offset="1" stop-color="#99FFFF"/>
</linearGradient>
<linearGradient id="paint1_linear_19409_21" x1="650.5" y1="430.5" x2="139651" y2="430.5" gradientUnits="userSpaceOnUse">
<stop stop-color="#99F7CB"/>
<stop offset="1" stop-color="#99FFFF"/>
</linearGradient>
</defs>
</svg>
